<?xml version="1.0" standalone="no"?>
<!DOCTYPE svg PUBLIC "-//W3C//DTD SVG 20010904//EN"
 "http://www.w3.org/TR/2001/REC-SVG-20010904/DTD/svg10.dtd">
<svg version="1.0" xmlns="http://www.w3.org/2000/svg"
 width="700.000000pt" height="700.000000pt" viewBox="0 0 700.000000 700.000000"
 preserveAspectRatio="xMidYMid meet">
<metadata>
Created by potrace 1.14, written by Peter Selinger 2001-2017
</metadata>
<g transform="translate(0.000000,700.000000) scale(0.100000,-0.100000)"
fill="#000000" stroke="none">
<path d="M3280 6994 c-19 -2 -84 -9 -145 -14 -1112 -108 -2136 -784 -2693
-1781 -287 -513 -442 -1108 -442 -1699 0 -794 273 -1566 776 -2195 113 -141
388 -416 529 -529 527 -422 1144 -677 1830 -758 145 -17 576 -17 730 0 824 91
1568 455 2140 1044 829 853 1168 2049 909 3206 -112 503 -362 1019 -690 1426
-111 138 -300 335 -429 445 -546 470 -1170 747 -1885 837 -110 14 -556 27
-630 18z m624 -399 c986 -136 1833 -711 2321 -1575 454 -802 519 -1808 175
-2670 -306 -764 -915 -1394 -1654 -1710 -1198 -513 -2556 -251 -3465 670 -603
611 -923 1422 -898 2280 14 473 116 883 322 1295 225 448 532 817 930 1115
456 342 1013 557 1580 609 148 14 548 6 689 -14z"/>
<path d="M2400 4725 l-135 -135 210 -210 210 -210 -208 -208 c-114 -114 -207
-212 -207 -217 0 -6 59 -69 130 -140 l130 -130 348 348 347 347 -345 345 -345
345 -135 -135z"/>
<path d="M4120 4515 l-345 -345 347 -347 348 -348 130 130 c71 71 130 134 130
140 0 5 -93 103 -207 217 l-208 208 210 210 210 210 -135 135 -135 135 -345
-345z"/>
<path d="M1550 3091 c0 -68 26 -293 45 -386 81 -402 309 -796 618 -1065 283
-248 611 -402 992 -466 138 -24 452 -24 590 0 546 92 999 377 1307 821 179
259 309 611 333 905 3 41 8 103 11 138 l6 62 -1951 0 c-1073 0 -1951 -4 -1951
-9z m3453 -423 c-191 -652 -760 -1101 -1438 -1135 -533 -27 -1063 242 -1364
691 -95 144 -182 331 -215 469 l-6 27 1519 0 1520 0 -16 -52z"/>
</g>
</svg>
